<?xml version="1.0" encoding="UTF-8" standalone="no"?>
<svg
   width="600pt"
   height="600pt"
   viewBox="0 0 600 600"
   version="1.1"
   id="svg29"
   xmlns="http://www.w3.org/2000/svg"
   xmlns:svg="http://www.w3.org/2000/svg">
  <defs
     id="defs29" />
  <path
     fill-rule="evenodd"
     fill="rgb(50.98114%, 20.391846%, 10.195923%)"
     fill-opacity="1"
     d="M 127.394531 288.707031 C 127.394531 296.789062 120.84375 303.34375 112.757812 303.34375 C 104.675781 303.34375 98.125 296.789062 98.125 288.707031 L 98.125 220.890625 C 98.125 203.207031 102.8125 186.160156 111.316406 170.875 C 119.84375 155.550781 132.191406 142.09375 147.453125 131.667969 C 154.117188 127.121094 163.203125 128.835938 167.75 135.496094 C 172.296875 142.160156 170.582031 151.246094 163.917969 155.792969 C 152.382812 163.675781 143.121094 173.714844 136.816406 185.054688 C 130.746094 195.964844 127.394531 208.179688 127.394531 220.890625 Z M 127.394531 288.707031 "
     id="path1" />
  <path
     fill-rule="evenodd"
     fill="rgb(29.411316%, 12.548828%, 4.705811%)"
     fill-opacity="1"
     d="M 407.308594 63.222656 L 407.3125 63.222656 C 417.816406 63.222656 426.410156 71.816406 426.410156 82.320312 L 426.410156 175.195312 L 388.210938 175.195312 L 388.210938 82.320312 C 388.210938 71.816406 396.804688 63.222656 407.308594 63.222656 "
     id="path2" />
  <path
     fill-rule="evenodd"
     fill="rgb(50.98114%, 20.391846%, 10.195923%)"
     fill-opacity="1"
     d="M 357.234375 63.222656 C 367.738281 63.222656 376.335938 71.816406 376.335938 82.320312 L 376.335938 175.195312 L 338.132812 175.195312 L 338.132812 82.320312 C 338.132812 71.816406 346.726562 63.222656 357.234375 63.222656 "
     id="path3" />
  <path
     fill-rule="evenodd"
     fill="rgb(97.647095%, 72.157288%, 43.920898%)"
     fill-opacity="1"
     d="M 362.605469 80.378906 C 367.210938 80.378906 370.972656 84.140625 370.972656 88.742188 L 370.972656 143.730469 L 354.242188 143.730469 L 354.242188 88.742188 C 354.242188 84.140625 358.003906 80.378906 362.605469 80.378906 "
     id="path4" />
  <path
     fill-rule="evenodd"
     fill="rgb(87.059021%, 83.137512%, 78.039551%)"
     fill-opacity="1"
     d="M 262.03125 495.148438 C 389.664062 495.148438 493.761719 490.117188 493.761719 483.941406 C 493.761719 477.769531 389.664062 472.734375 262.03125 472.734375 C 134.398438 472.734375 30.300781 477.769531 30.300781 483.941406 C 30.300781 490.117188 134.398438 495.148438 262.03125 495.148438 "
     id="path5" />
  <path
     fill-rule="evenodd"
     fill="rgb(25.881958%, 11.764526%, 5.490112%)"
     fill-opacity="1"
     d="M 387.832031 271.273438 L 431.511719 271.273438 L 431.511719 462.382812 C 431.511719 474.394531 421.683594 484.21875 409.671875 484.21875 C 397.65625 484.21875 387.832031 474.394531 387.832031 462.382812 Z M 387.832031 271.273438 "
     id="path6" />
  <path
     fill-rule="evenodd"
     fill="rgb(25.881958%, 11.764526%, 5.490112%)"
     fill-opacity="1"
     d="M 155.6875 311.511719 L 251.550781 311.511719 L 251.550781 383.738281 C 251.550781 410.101562 229.980469 431.667969 203.621094 431.667969 L 155.6875 431.667969 Z M 155.6875 311.511719 "
     id="path7" />
  <path
     fill-rule="evenodd"
     fill="rgb(25.881958%, 11.764526%, 5.490112%)"
     fill-opacity="1"
     d="M 155.6875 396.804688 L 199.367188 396.804688 L 199.367188 462.378906 C 199.367188 474.394531 189.539062 484.21875 177.527344 484.21875 C 165.515625 484.21875 155.6875 474.394531 155.6875 462.378906 Z M 155.6875 396.804688 "
     id="path8" />
  <path
     fill-rule="evenodd"
     fill="rgb(50.98114%, 20.391846%, 10.195923%)"
     fill-opacity="1"
     d="M 157.75 239.289062 L 417.066406 239.289062 C 425.011719 239.289062 431.511719 245.789062 431.511719 253.734375 L 431.511719 311.515625 C 431.511719 351.234375 399.011719 383.734375 359.289062 383.734375 L 157.75 383.734375 C 118.027344 383.734375 85.527344 351.234375 85.527344 311.515625 L 85.527344 311.511719 C 85.527344 271.789062 118.027344 239.289062 157.75 239.289062 "
     id="path9" />
  <path
     fill-rule="evenodd"
     fill="rgb(97.647095%, 72.157288%, 43.920898%)"
     fill-opacity="1"
     d="M 421.507812 348.074219 C 408.910156 369.375 385.695312 383.734375 359.289062 383.734375 L 181.390625 383.734375 L 181.390625 368.542969 C 181.390625 328.820312 213.890625 296.320312 253.613281 296.320312 L 391.988281 296.320312 C 404.644531 296.320312 415.507812 302.632812 421.777344 313.625 C 428.046875 324.617188 427.949219 337.179688 421.507812 348.074219 "
     id="path10" />
  <path
     fill-rule="evenodd"
     fill="rgb(50.98114%, 20.391846%, 10.195923%)"
     fill-opacity="1"
     d="M 85.527344 311.511719 L 181.390625 311.511719 L 181.390625 383.738281 C 181.390625 410.101562 159.824219 431.667969 133.460938 431.667969 L 85.527344 431.667969 Z M 85.527344 311.511719 "
     id="path11" />
  <path
     fill-rule="evenodd"
     fill="rgb(50.98114%, 20.391846%, 10.195923%)"
     fill-opacity="1"
     d="M 85.527344 396.804688 L 129.207031 396.804688 L 129.207031 462.378906 C 129.207031 474.394531 119.378906 484.21875 107.367188 484.21875 C 95.355469 484.21875 85.527344 474.394531 85.527344 462.378906 Z M 85.527344 396.804688 "
     id="path12" />
  <path
     fill-rule="evenodd"
     fill="rgb(50.98114%, 20.391846%, 10.195923%)"
     fill-opacity="1"
     d="M 316.292969 271.273438 L 359.972656 271.273438 L 359.972656 462.382812 C 359.972656 474.394531 350.148438 484.21875 338.136719 484.21875 L 338.132812 484.21875 C 326.121094 484.21875 316.292969 474.394531 316.292969 462.382812 Z M 316.292969 271.273438 "
     id="path13" />
  <path
     fill-rule="evenodd"
     fill="rgb(50.98114%, 20.391846%, 10.195923%)"
     fill-opacity="1"
     d="M 338.136719 271.273438 L 431.511719 271.273438 L 431.511719 175.195312 L 338.136719 175.195312 Z M 338.136719 271.273438 "
     id="path14" />
  <path
     fill-rule="evenodd"
     fill="rgb(50.98114%, 20.391846%, 10.195923%)"
     fill-opacity="1"
     d="M 410.355469 102.972656 L 556.492188 102.972656 C 564.4375 102.972656 570.9375 109.46875 570.9375 117.414062 L 570.9375 175.195312 C 570.9375 214.917969 538.4375 247.417969 498.714844 247.417969 L 410.355469 247.417969 C 370.632812 247.417969 338.132812 214.917969 338.132812 175.195312 C 338.132812 135.46875 370.632812 102.972656 410.355469 102.972656 "
     id="path15" />
  <path
     fill-rule="evenodd"
     fill="rgb(91.764832%, 86.274719%, 80.392456%)"
     fill-opacity="1"
     d="M 487.160156 192.011719 L 512.800781 192.011719 L 512.800781 210.414062 C 512.800781 217.464844 507.03125 223.234375 499.980469 223.234375 C 492.929688 223.234375 487.160156 217.464844 487.160156 210.414062 Z M 487.160156 192.011719 "
     id="path16" />
  <path
     fill-rule="evenodd"
     fill="rgb(100%, 98.039246%, 96.470642%)"
     fill-opacity="1"
     d="M 495.28125 200.421875 C 497.867188 200.421875 499.980469 202.535156 499.980469 205.117188 L 499.980469 209.554688 C 499.980469 212.136719 497.867188 214.25 495.28125 214.25 C 492.699219 214.25 490.582031 212.136719 490.582031 209.554688 L 490.582031 205.117188 C 490.582031 202.535156 492.699219 200.421875 495.28125 200.421875 "
     id="path17" />
  <path
     fill-rule="evenodd"
     fill="rgb(91.764832%, 86.274719%, 80.392456%)"
     fill-opacity="1"
     d="M 520.058594 192.011719 L 545.699219 192.011719 L 545.699219 210.414062 C 545.699219 217.464844 539.929688 223.234375 532.878906 223.234375 C 525.828125 223.234375 520.058594 217.464844 520.058594 210.414062 Z M 520.058594 192.011719 "
     id="path18" />
  <path
     fill-rule="evenodd"
     fill="rgb(100%, 98.039246%, 96.470642%)"
     fill-opacity="1"
     d="M 528.179688 200.421875 C 530.765625 200.421875 532.878906 202.535156 532.878906 205.117188 L 532.878906 209.554688 C 532.878906 212.136719 530.765625 214.25 528.179688 214.25 C 525.59375 214.25 523.484375 212.136719 523.484375 209.554688 L 523.484375 205.117188 C 523.484375 202.535156 525.59375 200.421875 528.179688 200.421875 "
     id="path19" />
  <path
     fill-rule="evenodd"
     fill="rgb(29.411316%, 12.548828%, 4.705811%)"
     fill-opacity="1"
     d="M 421.171875 112.460938 C 433.183594 112.460938 443.011719 122.289062 443.011719 134.300781 L 443.011719 141.519531 C 443.011719 153.53125 433.183594 163.355469 421.171875 163.355469 C 409.160156 163.355469 399.332031 153.53125 399.332031 141.519531 L 399.332031 134.300781 C 399.332031 122.289062 409.160156 112.460938 421.171875 112.460938 "
     id="path20" />
  <path
     fill-rule="evenodd"
     fill="rgb(91.764832%, 86.274719%, 80.392456%)"
     fill-opacity="1"
     d="M 421.171875 122.972656 C 428.226562 122.972656 433.992188 128.738281 433.992188 135.792969 L 433.992188 140.027344 C 433.992188 147.082031 428.226562 152.847656 421.171875 152.847656 C 414.121094 152.847656 408.351562 147.082031 408.351562 140.027344 L 408.351562 135.792969 C 408.351562 128.738281 414.121094 122.972656 421.171875 122.972656 "
     id="path21" />
  <path
     fill-rule="evenodd"
     fill="rgb(29.411316%, 12.548828%, 4.705811%)"
     fill-opacity="1"
     d="M 421.171875 130.417969 C 424.710938 130.417969 427.601562 133.3125 427.601562 136.847656 L 427.601562 138.972656 C 427.601562 142.507812 424.710938 145.402344 421.171875 145.402344 C 417.636719 145.402344 414.742188 142.507812 414.742188 138.972656 L 414.742188 136.847656 C 414.742188 133.3125 417.636719 130.417969 421.171875 130.417969 "
     id="path22" />
  <path
     fill-rule="evenodd"
     fill="rgb(100%, 100%, 100%)"
     fill-opacity="1"
     d="M 428.859375 122.972656 L 428.863281 122.972656 C 432.398438 122.972656 435.292969 125.863281 435.292969 129.398438 L 435.292969 131.523438 C 435.292969 135.0625 432.398438 137.953125 428.863281 137.953125 L 428.859375 137.953125 C 425.328125 137.953125 422.433594 135.0625 422.433594 131.523438 L 422.433594 129.398438 C 422.433594 125.863281 425.328125 122.972656 428.859375 122.972656 "
     id="path23" />
  <path
     fill-rule="evenodd"
     fill="rgb(29.411316%, 12.548828%, 4.705811%)"
     fill-opacity="1"
     d="M 557.882812 94.507812 L 557.886719 94.507812 C 569.898438 94.507812 579.722656 104.332031 579.722656 116.347656 L 579.722656 123.5625 C 579.722656 135.574219 569.898438 145.402344 557.886719 145.402344 L 557.882812 145.402344 C 545.871094 145.402344 536.042969 135.574219 536.042969 123.5625 L 536.042969 116.347656 C 536.042969 104.332031 545.871094 94.507812 557.882812 94.507812 "
     id="path24" />
  <path
     fill-rule="evenodd"
     fill="rgb(67.059326%, 29.019165%, 14.509583%)"
     fill-opacity="1"
     d="M 166.894531 252.644531 L 263.347656 252.644531 C 269.507812 252.644531 274.554688 257.691406 274.554688 263.855469 C 274.554688 270.019531 269.507812 275.0625 263.347656 275.0625 L 166.894531 275.0625 C 160.730469 275.0625 155.6875 270.019531 155.6875 263.855469 C 155.6875 257.691406 160.730469 252.644531 166.894531 252.644531 "
     id="path25" />
  <path
     fill-rule="evenodd"
     fill="rgb(67.059326%, 29.019165%, 14.509583%)"
     fill-opacity="1"
     d="M 316.707031 252.644531 L 302.023438 252.644531 C 295.859375 252.644531 290.816406 257.691406 290.816406 263.855469 C 290.816406 270.019531 295.859375 275.0625 302.023438 275.0625 L 316.707031 275.0625 C 322.871094 275.0625 327.914062 270.019531 327.914062 263.855469 C 327.914062 257.691406 322.871094 252.644531 316.707031 252.644531 "
     id="path26" />
  <path
     fill-rule="evenodd"
     fill="rgb(67.059326%, 29.019165%, 14.509583%)"
     fill-opacity="1"
     d="M 376.335938 209.316406 L 376.335938 153.421875 C 376.335938 147.261719 371.289062 142.21875 365.125 142.21875 C 358.964844 142.21875 353.921875 147.261719 353.921875 153.421875 L 353.921875 209.316406 C 353.921875 215.480469 358.964844 220.523438 365.125 220.523438 C 371.289062 220.523438 376.335938 215.480469 376.335938 209.316406 "
     id="path27" />
  <path
     fill-rule="evenodd"
     fill="rgb(37.646484%, 15.686035%, 5.097961%)"
     fill-opacity="1"
     d="M 166.894531 385.597656 L 166.894531 347.039062 C 166.894531 340.875 161.847656 335.832031 155.6875 335.832031 C 149.523438 335.832031 144.480469 340.875 144.480469 347.039062 L 144.480469 385.597656 C 144.480469 391.761719 149.523438 396.804688 155.6875 396.804688 C 161.847656 396.804688 166.894531 391.761719 166.894531 385.597656 "
     id="path28" />
  <path
     fill-rule="evenodd"
     fill="rgb(50.98114%, 20.391846%, 10.195923%)"
     fill-opacity="1"
     d="M 330.941406 287.832031 L 274.554688 287.832031 L 274.554688 330.3125 C 274.554688 345.820312 287.242188 358.511719 302.75 358.511719 L 330.941406 358.511719 Z M 330.941406 287.832031 "
     id="path29" />
</svg>
